# xmcd
#
# Track frame offsets:
#	150
#	22335
#	40180
#	63500
#	83070
#	103912
#	124785
#	149687
#	167435
#	193392
#	213497
#	240152
#	263860
#	288550
#	311510
#	331727
#
# Disc length: 4769
#
# Revision: 1
# Processed by: cddbd v1.5.1PL0 Copyright (c) Steve Scherf et al.
# Submitted via: NeoAudio 9.9.9
# Normalized: r0:TRMNUM
#
DISCID=f0129f10
DTITLE=Various Artist - Velvet Jazz II
DYEAR=1999
DGENRE=Jazz
TTITLE0=Pick Up The Pieces    Avenue Blue
TTITLE1=Just The Two Of Us    Grover Washington jnr
TTITLE2=Sweetest Taboo    Patrice Rushen
TTITLE3=Looking back    Bob Mamet
TTITLE4=Lover For Life    Doc Powell
TTITLE5=Moonlight Dancing    Earl Klugh
TTITLE6=Fill The Need    George Duke
TTITLE7=Ain't No Sunshine    Boney James
TTITLE8=Fugitive Life    Bob James and Earl Klugh
TTITLE9=The Lady Wants To Know    Michael Franks
TTITLE10=Ashanti    Bob James
TTITLE11=End Of The Road    Paul Jackson Jnr
TTITLE12=I'll Love You    Joe Sample
TTITLE13=Pieces Of A Dream    Pieces Of A Dream
TTITLE14=Sleepwalk    Larry Carlton
TTITLE15=Bermuda Nights    Gerald Albright
EXTD=YEAR: 1999
EXTT0=
EXTT1=
EXTT2=
EXTT3=
EXTT4=
EXTT5=
EXTT6=
EXTT7=
EXTT8=
EXTT9=
EXTT10=
EXTT11=
EXTT12=
EXTT13=
EXTT14=
EXTT15=
PLAYORDER=
